<mxfile host="app.diagrams.net" agent="Mozilla/5.0 (Macintosh; Intel Mac OS X 10_15_7) AppleWebKit/537.36 (KHTML, like Gecko) Chrome/132.0.0.0 Safari/537.36" version="26.0.10">
  <diagram name="Page-1" id="aMtwMclGtRPfjiXLnC36">
    <mxGraphModel dx="2816" dy="2350" grid="1" gridSize="10" guides="1" tooltips="1" connect="1" arrows="1" fold="1" page="1" pageScale="1" pageWidth="850" pageHeight="1100" math="0" shadow="0">
      <root>
        <mxCell id="0" />
        <mxCell id="1" parent="0" />
        <mxCell id="q4BJDzquN5z42kv_lNJv-1" value="Users" style="outlineConnect=0;fontColor=#232F3E;gradientColor=none;strokeColor=#232F3E;fillColor=#ffffff;verticalLabelPosition=bottom;verticalAlign=top;align=center;html=1;fontSize=12;fontStyle=0;aspect=fixed;shape=mxgraph.aws4.resourceIcon;resIcon=mxgraph.aws4.users;strokeWidth=7;shadow=0;fontFamily=Helvetica;rounded=1;" vertex="1" parent="1">
          <mxGeometry x="-400" y="50" width="80" height="80" as="geometry" />
        </mxCell>
        <mxCell id="q4BJDzquN5z42kv_lNJv-2" value="" style="points=[[0,0,0],[0.25,0,0],[0.5,0,0],[0.75,0,0],[1,0,0],[0,1,0],[0.25,1,0],[0.5,1,0],[0.75,1,0],[1,1,0],[0,0.25,0],[0,0.5,0],[0,0.75,0],[1,0.25,0],[1,0.5,0],[1,0.75,0]];outlineConnect=0;fontColor=#232F3E;fillColor=#8C4FFF;strokeColor=#ffffff;verticalLabelPosition=bottom;verticalAlign=top;align=center;html=1;fontSize=12;fontStyle=0;aspect=fixed;shape=mxgraph.aws4.resourceIcon;resIcon=mxgraph.aws4.route_53;strokeWidth=7;shadow=0;fontFamily=Helvetica;rounded=1;" vertex="1" parent="1">
          <mxGeometry x="-190" y="50" width="80" height="80" as="geometry" />
        </mxCell>
        <mxCell id="q4BJDzquN5z42kv_lNJv-3" value="" style="points=[];aspect=fixed;html=1;align=center;shadow=0;fillColor=#FF6A00;strokeColor=none;shape=mxgraph.alibaba_cloud.ga_global_accelerator;strokeWidth=7;fontSize=12;fontFamily=Helvetica;rounded=1;" vertex="1" parent="1">
          <mxGeometry x="40" y="50" width="80" height="80" as="geometry" />
        </mxCell>
        <mxCell id="q4BJDzquN5z42kv_lNJv-4" value="" style="points=[];aspect=fixed;html=1;align=center;shadow=0;fillColor=#FF6A00;strokeColor=none;shape=mxgraph.alibaba_cloud.alb_application_load_balancer_01;strokeWidth=7;fontSize=12;fontFamily=Helvetica;rounded=1;" vertex="1" parent="1">
          <mxGeometry x="220" y="50" width="80" height="80" as="geometry" />
        </mxCell>
        <mxCell id="q4BJDzquN5z42kv_lNJv-5" value="" style="outlineConnect=0;verticalLabelPosition=bottom;verticalAlign=top;align=center;html=1;shape=mxgraph.aws3.cloudfront;fillColor=#F58536;gradientColor=none;strokeWidth=7;shadow=0;fontSize=12;fontFamily=Helvetica;rounded=1;" vertex="1" parent="1">
          <mxGeometry x="510" y="50" width="80" height="80" as="geometry" />
        </mxCell>
        <mxCell id="q4BJDzquN5z42kv_lNJv-6" value="" style="points=[[0,0,0],[0.25,0,0],[0.5,0,0],[0.75,0,0],[1,0,0],[0,1,0],[0.25,1,0],[0.5,1,0],[0.75,1,0],[1,1,0],[0,0.25,0],[0,0.5,0],[0,0.75,0],[1,0.25,0],[1,0.5,0],[1,0.75,0]];outlineConnect=0;fontColor=#232F3E;fillColor=#E7157B;strokeColor=#ffffff;verticalLabelPosition=bottom;verticalAlign=top;align=center;html=1;fontSize=12;fontStyle=0;aspect=fixed;shape=mxgraph.aws4.resourceIcon;resIcon=mxgraph.aws4.api_gateway;strokeWidth=7;shadow=0;fontFamily=Helvetica;rounded=1;" vertex="1" parent="1">
          <mxGeometry x="760" y="50" width="80" height="80" as="geometry" />
        </mxCell>
        <mxCell id="q4BJDzquN5z42kv_lNJv-7" value="" style="outlineConnect=0;verticalLabelPosition=bottom;verticalAlign=top;align=center;html=1;shape=mxgraph.aws3.lambda_function;fillColor=#F58534;gradientColor=none;strokeWidth=7;shadow=0;fontSize=12;fontFamily=Helvetica;rounded=1;" vertex="1" parent="1">
          <mxGeometry x="1000" y="80" width="80" height="80" as="geometry" />
        </mxCell>
        <mxCell id="q4BJDzquN5z42kv_lNJv-8" value="" style="points=[[0,0,0],[0.25,0,0],[0.5,0,0],[0.75,0,0],[1,0,0],[0,1,0],[0.25,1,0],[0.5,1,0],[0.75,1,0],[1,1,0],[0,0.25,0],[0,0.5,0],[0,0.75,0],[1,0.25,0],[1,0.5,0],[1,0.75,0]];outlineConnect=0;fontColor=#232F3E;fillColor=#8C4FFF;strokeColor=#ffffff;verticalLabelPosition=bottom;verticalAlign=top;align=center;html=1;fontSize=12;fontStyle=0;aspect=fixed;shape=mxgraph.aws4.resourceIcon;resIcon=mxgraph.aws4.redshift;strokeWidth=7;shadow=0;fontFamily=Helvetica;rounded=1;" vertex="1" parent="1">
          <mxGeometry x="1280" y="80" width="80" height="80" as="geometry" />
        </mxCell>
        <mxCell id="q4BJDzquN5z42kv_lNJv-9" value="" style="points=[[0,0,0],[0.25,0,0],[0.5,0,0],[0.75,0,0],[1,0,0],[0,1,0],[0.25,1,0],[0.5,1,0],[0.75,1,0],[1,1,0],[0,0.25,0],[0,0.5,0],[0,0.75,0],[1,0.25,0],[1,0.5,0],[1,0.75,0]];outlineConnect=0;fontColor=#232F3E;fillColor=#C925D1;strokeColor=#ffffff;verticalLabelPosition=bottom;verticalAlign=top;align=center;html=1;fontSize=12;fontStyle=0;aspect=fixed;shape=mxgraph.aws4.resourceIcon;resIcon=mxgraph.aws4.rds;strokeWidth=7;shadow=0;fontFamily=Helvetica;rounded=1;" vertex="1" parent="1">
          <mxGeometry x="1280" y="281.25" width="80" height="80" as="geometry" />
        </mxCell>
        <mxCell id="q4BJDzquN5z42kv_lNJv-10" value="" style="points=[[0,0,0],[0.25,0,0],[0.5,0,0],[0.75,0,0],[1,0,0],[0,1,0],[0.25,1,0],[0.5,1,0],[0.75,1,0],[1,1,0],[0,0.25,0],[0,0.5,0],[0,0.75,0],[1,0.25,0],[1,0.5,0],[1,0.75,0]];outlineConnect=0;fontColor=#232F3E;fillColor=#C925D1;strokeColor=#ffffff;verticalLabelPosition=bottom;verticalAlign=top;align=center;html=1;fontSize=12;fontStyle=0;aspect=fixed;shape=mxgraph.aws4.resourceIcon;resIcon=mxgraph.aws4.dynamodb;strokeWidth=7;shadow=0;fontFamily=Helvetica;rounded=1;" vertex="1" parent="1">
          <mxGeometry x="1280" y="-120" width="80" height="80" as="geometry" />
        </mxCell>
        <mxCell id="q4BJDzquN5z42kv_lNJv-11" value="" style="points=[[0,0,0],[0.25,0,0],[0.5,0,0],[0.75,0,0],[1,0,0],[0,1,0],[0.25,1,0],[0.5,1,0],[0.75,1,0],[1,1,0],[0,0.25,0],[0,0.5,0],[0,0.75,0],[1,0.25,0],[1,0.5,0],[1,0.75,0]];outlineConnect=0;fontColor=#232F3E;fillColor=#ED7100;strokeColor=#ffffff;verticalLabelPosition=bottom;verticalAlign=top;align=center;html=1;fontSize=12;fontStyle=0;aspect=fixed;shape=mxgraph.aws4.resourceIcon;resIcon=mxgraph.aws4.media_services;strokeWidth=7;shadow=0;fontFamily=Helvetica;rounded=1;" vertex="1" parent="1">
          <mxGeometry x="1280" y="480" width="80" height="80" as="geometry" />
        </mxCell>
        <mxCell id="q4BJDzquN5z42kv_lNJv-12" value="" style="points=[[0,0,0],[0.25,0,0],[0.5,0,0],[0.75,0,0],[1,0,0],[0,1,0],[0.25,1,0],[0.5,1,0],[0.75,1,0],[1,1,0],[0,0.25,0],[0,0.5,0],[0,0.75,0],[1,0.25,0],[1,0.5,0],[1,0.75,0]];outlineConnect=0;fontColor=#232F3E;fillColor=#DD344C;strokeColor=#ffffff;verticalLabelPosition=bottom;verticalAlign=top;align=center;html=1;fontSize=12;fontStyle=0;aspect=fixed;shape=mxgraph.aws4.resourceIcon;resIcon=mxgraph.aws4.secrets_manager;strokeWidth=7;shadow=0;fontFamily=Helvetica;rounded=1;" vertex="1" parent="1">
          <mxGeometry x="1280" y="660" width="80" height="80" as="geometry" />
        </mxCell>
        <mxCell id="q4BJDzquN5z42kv_lNJv-13" value="" style="points=[[0,0,0],[0.25,0,0],[0.5,0,0],[0.75,0,0],[1,0,0],[0,1,0],[0.25,1,0],[0.5,1,0],[0.75,1,0],[1,1,0],[0,0.25,0],[0,0.5,0],[0,0.75,0],[1,0.25,0],[1,0.5,0],[1,0.75,0]];outlineConnect=0;fontColor=#232F3E;fillColor=#DD344C;strokeColor=#ffffff;verticalLabelPosition=bottom;verticalAlign=top;align=center;html=1;fontSize=12;fontStyle=0;aspect=fixed;shape=mxgraph.aws4.resourceIcon;resIcon=mxgraph.aws4.macie;strokeWidth=7;shadow=0;fontFamily=Helvetica;rounded=1;" vertex="1" parent="1">
          <mxGeometry x="1280" y="840" width="80" height="80" as="geometry" />
        </mxCell>
        <mxCell id="q4BJDzquN5z42kv_lNJv-14" value="" style="points=[[0,0,0],[0.25,0,0],[0.5,0,0],[0.75,0,0],[1,0,0],[0,1,0],[0.25,1,0],[0.5,1,0],[0.75,1,0],[1,1,0],[0,0.25,0],[0,0.5,0],[0,0.75,0],[1,0.25,0],[1,0.5,0],[1,0.75,0]];points=[[0,0,0],[0.25,0,0],[0.5,0,0],[0.75,0,0],[1,0,0],[0,1,0],[0.25,1,0],[0.5,1,0],[0.75,1,0],[1,1,0],[0,0.25,0],[0,0.5,0],[0,0.75,0],[1,0.25,0],[1,0.5,0],[1,0.75,0]];outlineConnect=0;fontColor=#232F3E;fillColor=#E7157B;strokeColor=#ffffff;verticalLabelPosition=bottom;verticalAlign=top;align=center;html=1;fontSize=12;fontStyle=0;aspect=fixed;shape=mxgraph.aws4.resourceIcon;resIcon=mxgraph.aws4.compute_optimizer;strokeWidth=7;shadow=0;fontFamily=Helvetica;rounded=1;" vertex="1" parent="1">
          <mxGeometry x="1280" y="1040" width="80" height="80" as="geometry" />
        </mxCell>
        <mxCell id="q4BJDzquN5z42kv_lNJv-15" value="" style="points=[[0,0,0],[0.25,0,0],[0.5,0,0],[0.75,0,0],[1,0,0],[0,1,0],[0.25,1,0],[0.5,1,0],[0.75,1,0],[1,1,0],[0,0.25,0],[0,0.5,0],[0,0.75,0],[1,0.25,0],[1,0.5,0],[1,0.75,0]];outlineConnect=0;fontColor=#232F3E;fillColor=#DD344C;strokeColor=#ffffff;verticalLabelPosition=bottom;verticalAlign=top;align=center;html=1;fontSize=12;fontStyle=0;aspect=fixed;shape=mxgraph.aws4.resourceIcon;resIcon=mxgraph.aws4.simple_email_service;strokeWidth=7;shadow=0;fontFamily=Helvetica;rounded=1;" vertex="1" parent="1">
          <mxGeometry x="1000" y="840" width="80" height="80" as="geometry" />
        </mxCell>
        <mxCell id="q4BJDzquN5z42kv_lNJv-16" value="" style="points=[[0,0,0],[0.25,0,0],[0.5,0,0],[0.75,0,0],[1,0,0],[0,1,0],[0.25,1,0],[0.5,1,0],[0.75,1,0],[1,1,0],[0,0.25,0],[0,0.5,0],[0,0.75,0],[1,0.25,0],[1,0.5,0],[1,0.75,0]];outlineConnect=0;fontColor=#232F3E;fillColor=#E7157B;strokeColor=#ffffff;verticalLabelPosition=bottom;verticalAlign=top;align=center;html=1;fontSize=12;fontStyle=0;aspect=fixed;shape=mxgraph.aws4.resourceIcon;resIcon=mxgraph.aws4.sns;strokeWidth=7;shadow=0;fontFamily=Helvetica;rounded=1;" vertex="1" parent="1">
          <mxGeometry x="1000" y="660" width="80" height="80" as="geometry" />
        </mxCell>
        <mxCell id="q4BJDzquN5z42kv_lNJv-17" value="Payment" style="html=1;whiteSpace=wrap;strokeColor=none;fillColor=#0079D6;labelPosition=center;verticalLabelPosition=middle;verticalAlign=top;align=center;fontSize=12;outlineConnect=0;spacingTop=-6;fontColor=#FFFFFF;shape=mxgraph.sitemap.payment;strokeWidth=7;shadow=0;fontFamily=Helvetica;rounded=1;" vertex="1" parent="1">
          <mxGeometry x="1000" y="281.25" width="80" height="80" as="geometry" />
        </mxCell>
        <mxCell id="q4BJDzquN5z42kv_lNJv-18" value="" style="points=[[0,0,0],[0.25,0,0],[0.5,0,0],[0.75,0,0],[1,0,0],[0,1,0],[0.25,1,0],[0.5,1,0],[0.75,1,0],[1,1,0],[0,0.25,0],[0,0.5,0],[0,0.75,0],[1,0.25,0],[1,0.5,0],[1,0.75,0]];outlineConnect=0;fontColor=#232F3E;fillColor=#DD344C;strokeColor=#ffffff;verticalLabelPosition=bottom;verticalAlign=top;align=center;html=1;fontSize=12;fontStyle=0;aspect=fixed;shape=mxgraph.aws4.resourceIcon;resIcon=mxgraph.aws4.cognito;strokeWidth=7;shadow=0;fontFamily=Helvetica;rounded=1;" vertex="1" parent="1">
          <mxGeometry x="760" y="281.25" width="80" height="80" as="geometry" />
        </mxCell>
        <mxCell id="q4BJDzquN5z42kv_lNJv-19" value="Amazon S3" style="outlineConnect=0;fontColor=#232F3E;gradientColor=none;strokeColor=#ffffff;fillColor=#232F3E;verticalLabelPosition=middle;verticalAlign=bottom;align=center;html=1;whiteSpace=wrap;fontSize=12;fontStyle=1;spacing=3;shape=mxgraph.aws4.productIcon;prIcon=mxgraph.aws4.s3;strokeWidth=7;shadow=0;fontFamily=Helvetica;rounded=1;" vertex="1" parent="1">
          <mxGeometry x="510" y="281.25" width="80" height="80" as="geometry" />
        </mxCell>
        <mxCell id="q4BJDzquN5z42kv_lNJv-20" value="" style="points=[[0,0,0],[0.25,0,0],[0.5,0,0],[0.75,0,0],[1,0,0],[0,1,0],[0.25,1,0],[0.5,1,0],[0.75,1,0],[1,1,0],[0,0.25,0],[0,0.5,0],[0,0.75,0],[1,0.25,0],[1,0.5,0],[1,0.75,0]];outlineConnect=0;fontColor=#232F3E;fillColor=#DD344C;strokeColor=#ffffff;verticalLabelPosition=bottom;verticalAlign=top;align=center;html=1;fontSize=12;fontStyle=0;aspect=fixed;shape=mxgraph.aws4.resourceIcon;resIcon=mxgraph.aws4.waf;strokeWidth=7;shadow=0;fontFamily=Helvetica;rounded=1;" vertex="1" parent="1">
          <mxGeometry x="220" y="281.25" width="80" height="80" as="geometry" />
        </mxCell>
        <mxCell id="q4BJDzquN5z42kv_lNJv-21" value="" style="points=[[0,0,0],[0.25,0,0],[0.5,0,0],[0.75,0,0],[1,0,0],[0,1,0],[0.25,1,0],[0.5,1,0],[0.75,1,0],[1,1,0],[0,0.25,0],[0,0.5,0],[0,0.75,0],[1,0.25,0],[1,0.5,0],[1,0.75,0]];outlineConnect=0;fontColor=#232F3E;fillColor=#DD344C;strokeColor=#ffffff;verticalLabelPosition=bottom;verticalAlign=top;align=center;html=1;fontSize=12;fontStyle=0;aspect=fixed;shape=mxgraph.aws4.resourceIcon;resIcon=mxgraph.aws4.guardduty;strokeWidth=7;shadow=0;fontFamily=Helvetica;rounded=1;" vertex="1" parent="1">
          <mxGeometry x="220" y="480" width="80" height="80" as="geometry" />
        </mxCell>
        <mxCell id="q4BJDzquN5z42kv_lNJv-22" value="" style="points=[[0,0,0],[0.25,0,0],[0.5,0,0],[0.75,0,0],[1,0,0],[0,1,0],[0.25,1,0],[0.5,1,0],[0.75,1,0],[1,1,0],[0,0.25,0],[0,0.5,0],[0,0.75,0],[1,0.25,0],[1,0.5,0],[1,0.75,0]];points=[[0,0,0],[0.25,0,0],[0.5,0,0],[0.75,0,0],[1,0,0],[0,1,0],[0.25,1,0],[0.5,1,0],[0.75,1,0],[1,1,0],[0,0.25,0],[0,0.5,0],[0,0.75,0],[1,0.25,0],[1,0.5,0],[1,0.75,0]];outlineConnect=0;fontColor=#232F3E;fillColor=#E7157B;strokeColor=#ffffff;verticalLabelPosition=bottom;verticalAlign=top;align=center;html=1;fontSize=12;fontStyle=0;aspect=fixed;shape=mxgraph.aws4.resourceIcon;resIcon=mxgraph.aws4.cloudtrail;strokeWidth=7;shadow=0;fontFamily=Helvetica;rounded=1;" vertex="1" parent="1">
          <mxGeometry x="220" y="660" width="80" height="80" as="geometry" />
        </mxCell>
        <mxCell id="q4BJDzquN5z42kv_lNJv-23" value="" style="outlineConnect=0;verticalLabelPosition=bottom;verticalAlign=top;align=center;html=1;shape=mxgraph.aws3.aws_iot;fillColor=#5294CF;gradientColor=none;strokeWidth=7;shadow=0;fontSize=12;fontFamily=Helvetica;rounded=1;" vertex="1" parent="1">
          <mxGeometry x="520" y="660" width="80" height="80" as="geometry" />
        </mxCell>
        <mxCell id="q4BJDzquN5z42kv_lNJv-24" value="" style="outlineConnect=0;verticalLabelPosition=bottom;verticalAlign=top;align=center;html=1;shape=mxgraph.aws3.greengrass;fillColor=#5294CF;gradientColor=none;strokeWidth=7;shadow=0;fontSize=12;fontFamily=Helvetica;rounded=1;" vertex="1" parent="1">
          <mxGeometry x="520" y="840" width="80" height="80" as="geometry" />
        </mxCell>
        <mxCell id="q4BJDzquN5z42kv_lNJv-25" value="" style="points=[];aspect=fixed;html=1;align=center;shadow=0;fillColor=#FF6A00;strokeColor=none;shape=mxgraph.alibaba_cloud.face_recognition;strokeWidth=7;fontSize=12;fontFamily=Helvetica;rounded=1;" vertex="1" parent="1">
          <mxGeometry x="760" y="840" width="80" height="80" as="geometry" />
        </mxCell>
        <mxCell id="q4BJDzquN5z42kv_lNJv-27" value="" style="points=[[0,0,0],[0.25,0,0],[0.5,0,0],[0.75,0,0],[1,0,0],[0,1,0],[0.25,1,0],[0.5,1,0],[0.75,1,0],[1,1,0],[0,0.25,0],[0,0.5,0],[0,0.75,0],[1,0.25,0],[1,0.5,0],[1,0.75,0]];outlineConnect=0;fontColor=#232F3E;fillColor=#8C4FFF;strokeColor=#ffffff;verticalLabelPosition=bottom;verticalAlign=top;align=center;html=1;fontSize=12;fontStyle=0;aspect=fixed;shape=mxgraph.aws4.resourceIcon;resIcon=mxgraph.aws4.kinesis_data_streams;strokeWidth=7;shadow=0;fontFamily=Helvetica;rounded=1;" vertex="1" parent="1">
          <mxGeometry x="760" y="480" width="80" height="80" as="geometry" />
        </mxCell>
        <mxCell id="q4BJDzquN5z42kv_lNJv-28" value="" style="points=[[0,0,0],[0.25,0,0],[0.5,0,0],[0.75,0,0],[1,0,0],[0,1,0],[0.25,1,0],[0.5,1,0],[0.75,1,0],[1,1,0],[0,0.25,0],[0,0.5,0],[0,0.75,0],[1,0.25,0],[1,0.5,0],[1,0.75,0]];outlineConnect=0;fontColor=#232F3E;fillColor=#01A88D;strokeColor=#ffffff;verticalLabelPosition=bottom;verticalAlign=top;align=center;html=1;fontSize=12;fontStyle=0;aspect=fixed;shape=mxgraph.aws4.resourceIcon;resIcon=mxgraph.aws4.personalize;strokeWidth=7;shadow=0;fontFamily=Helvetica;rounded=1;" vertex="1" parent="1">
          <mxGeometry x="1560" y="80" width="80" height="80" as="geometry" />
        </mxCell>
        <mxCell id="q4BJDzquN5z42kv_lNJv-29" value="" style="points=[[0,0,0],[0.25,0,0],[0.5,0,0],[0.75,0,0],[1,0,0],[0,1,0],[0.25,1,0],[0.5,1,0],[0.75,1,0],[1,1,0],[0,0.25,0],[0,0.5,0],[0,0.75,0],[1,0.25,0],[1,0.5,0],[1,0.75,0]];outlineConnect=0;fontColor=#232F3E;fillColor=#01A88D;strokeColor=#ffffff;verticalLabelPosition=bottom;verticalAlign=top;align=center;html=1;fontSize=12;fontStyle=0;aspect=fixed;shape=mxgraph.aws4.resourceIcon;resIcon=mxgraph.aws4.sagemaker;strokeWidth=7;shadow=0;fontFamily=Helvetica;rounded=1;" vertex="1" parent="1">
          <mxGeometry x="1560" y="281.25" width="80" height="80" as="geometry" />
        </mxCell>
        <mxCell id="q4BJDzquN5z42kv_lNJv-30" value="" style="points=[[0,0,0],[0.25,0,0],[0.5,0,0],[0.75,0,0],[1,0,0],[0,1,0],[0.25,1,0],[0.5,1,0],[0.75,1,0],[1,1,0],[0,0.25,0],[0,0.5,0],[0,0.75,0],[1,0.25,0],[1,0.5,0],[1,0.75,0]];outlineConnect=0;fontColor=#232F3E;fillColor=#8C4FFF;strokeColor=#ffffff;verticalLabelPosition=bottom;verticalAlign=top;align=center;html=1;fontSize=12;fontStyle=0;aspect=fixed;shape=mxgraph.aws4.resourceIcon;resIcon=mxgraph.aws4.glue;strokeWidth=7;shadow=0;fontFamily=Helvetica;rounded=1;" vertex="1" parent="1">
          <mxGeometry x="1560" y="480" width="80" height="80" as="geometry" />
        </mxCell>
        <mxCell id="q4BJDzquN5z42kv_lNJv-32" value="" style="edgeStyle=orthogonalEdgeStyle;html=1;endArrow=open;elbow=vertical;startArrow=none;endFill=0;strokeColor=#545B64;rounded=0;entryX=0;entryY=0.5;entryDx=0;entryDy=0;entryPerimeter=0;" edge="1" parent="1" source="q4BJDzquN5z42kv_lNJv-1" target="q4BJDzquN5z42kv_lNJv-2">
          <mxGeometry width="100" relative="1" as="geometry">
            <mxPoint x="-320" y="119.09" as="sourcePoint" />
            <mxPoint x="-220" y="119.09" as="targetPoint" />
          </mxGeometry>
        </mxCell>
        <mxCell id="q4BJDzquN5z42kv_lNJv-33" value="" style="edgeStyle=orthogonalEdgeStyle;html=1;endArrow=open;elbow=vertical;startArrow=none;endFill=0;strokeColor=#545B64;rounded=0;entryX=-0.033;entryY=0.483;entryDx=0;entryDy=0;entryPerimeter=0;exitX=1;exitY=0.5;exitDx=0;exitDy=0;exitPerimeter=0;" edge="1" parent="1" source="q4BJDzquN5z42kv_lNJv-2" target="q4BJDzquN5z42kv_lNJv-3">
          <mxGeometry width="100" relative="1" as="geometry">
            <mxPoint x="-80" y="119.51999999999998" as="sourcePoint" />
            <mxPoint x="20" y="119.51999999999998" as="targetPoint" />
          </mxGeometry>
        </mxCell>
        <mxCell id="q4BJDzquN5z42kv_lNJv-34" value="" style="edgeStyle=orthogonalEdgeStyle;html=1;endArrow=open;elbow=vertical;startArrow=none;endFill=0;strokeColor=#545B64;rounded=0;exitX=1.002;exitY=0.46;exitDx=0;exitDy=0;exitPerimeter=0;" edge="1" parent="1" source="q4BJDzquN5z42kv_lNJv-3" target="q4BJDzquN5z42kv_lNJv-4">
          <mxGeometry width="100" relative="1" as="geometry">
            <mxPoint x="130" y="119.52" as="sourcePoint" />
            <mxPoint x="230" y="119.52" as="targetPoint" />
          </mxGeometry>
        </mxCell>
        <mxCell id="q4BJDzquN5z42kv_lNJv-35" value="" style="edgeStyle=orthogonalEdgeStyle;html=1;endArrow=open;elbow=vertical;startArrow=none;endFill=0;strokeColor=#545B64;rounded=0;entryX=0;entryY=0.5;entryDx=0;entryDy=0;entryPerimeter=0;" edge="1" parent="1" source="q4BJDzquN5z42kv_lNJv-4" target="q4BJDzquN5z42kv_lNJv-5">
          <mxGeometry width="100" relative="1" as="geometry">
            <mxPoint x="350" y="119.51999999999998" as="sourcePoint" />
            <mxPoint x="450" y="119.51999999999998" as="targetPoint" />
          </mxGeometry>
        </mxCell>
        <mxCell id="q4BJDzquN5z42kv_lNJv-36" value="" style="edgeStyle=orthogonalEdgeStyle;html=1;endArrow=open;elbow=vertical;startArrow=none;endFill=0;strokeColor=#545B64;rounded=0;entryX=0;entryY=0.5;entryDx=0;entryDy=0;entryPerimeter=0;exitX=1;exitY=0.5;exitDx=0;exitDy=0;exitPerimeter=0;" edge="1" parent="1" source="q4BJDzquN5z42kv_lNJv-5" target="q4BJDzquN5z42kv_lNJv-6">
          <mxGeometry width="100" relative="1" as="geometry">
            <mxPoint x="620" y="119.51999999999998" as="sourcePoint" />
            <mxPoint x="720" y="119.51999999999998" as="targetPoint" />
          </mxGeometry>
        </mxCell>
        <mxCell id="q4BJDzquN5z42kv_lNJv-37" value="" style="edgeStyle=orthogonalEdgeStyle;html=1;endArrow=open;elbow=vertical;startArrow=none;endFill=0;strokeColor=#545B64;rounded=0;entryX=0.145;entryY=0.145;entryDx=0;entryDy=0;entryPerimeter=0;exitX=1;exitY=0.5;exitDx=0;exitDy=0;exitPerimeter=0;" edge="1" parent="1" source="q4BJDzquN5z42kv_lNJv-6" target="q4BJDzquN5z42kv_lNJv-7">
          <mxGeometry width="100" relative="1" as="geometry">
            <mxPoint x="860" y="119.52000000000001" as="sourcePoint" />
            <mxPoint x="960" y="119.52000000000001" as="targetPoint" />
          </mxGeometry>
        </mxCell>
        <mxCell id="q4BJDzquN5z42kv_lNJv-38" value="" style="endArrow=classic;html=1;rounded=0;entryX=0;entryY=0.5;entryDx=0;entryDy=0;entryPerimeter=0;exitX=0.5;exitY=0;exitDx=0;exitDy=0;exitPerimeter=0;" edge="1" parent="1" source="q4BJDzquN5z42kv_lNJv-7" target="q4BJDzquN5z42kv_lNJv-10">
          <mxGeometry width="50" height="50" relative="1" as="geometry">
            <mxPoint x="1050" y="50" as="sourcePoint" />
            <mxPoint x="1100" as="targetPoint" />
          </mxGeometry>
        </mxCell>
        <mxCell id="q4BJDzquN5z42kv_lNJv-39" value="" style="endArrow=classic;html=1;rounded=0;entryX=0;entryY=0;entryDx=0;entryDy=0;entryPerimeter=0;exitX=1;exitY=0.5;exitDx=0;exitDy=0;exitPerimeter=0;" edge="1" parent="1" source="q4BJDzquN5z42kv_lNJv-7" target="q4BJDzquN5z42kv_lNJv-9">
          <mxGeometry width="50" height="50" relative="1" as="geometry">
            <mxPoint x="1170" y="190" as="sourcePoint" />
            <mxPoint x="1220" y="140" as="targetPoint" />
          </mxGeometry>
        </mxCell>
        <mxCell id="q4BJDzquN5z42kv_lNJv-40" value="" style="endArrow=classic;html=1;rounded=0;entryX=0.5;entryY=0;entryDx=0;entryDy=0;entryPerimeter=0;exitX=0.5;exitY=1;exitDx=0;exitDy=0;exitPerimeter=0;" edge="1" parent="1" source="q4BJDzquN5z42kv_lNJv-7" target="q4BJDzquN5z42kv_lNJv-17">
          <mxGeometry width="50" height="50" relative="1" as="geometry">
            <mxPoint x="1015" y="220" as="sourcePoint" />
            <mxPoint x="1065" y="170" as="targetPoint" />
          </mxGeometry>
        </mxCell>
        <mxCell id="q4BJDzquN5z42kv_lNJv-41" value="" style="endArrow=classic;html=1;rounded=0;entryX=0;entryY=0;entryDx=0;entryDy=0;entryPerimeter=0;exitX=0.855;exitY=0.855;exitDx=0;exitDy=0;exitPerimeter=0;" edge="1" parent="1" source="q4BJDzquN5z42kv_lNJv-7" target="q4BJDzquN5z42kv_lNJv-12">
          <mxGeometry width="50" height="50" relative="1" as="geometry">
            <mxPoint x="1210" y="350" as="sourcePoint" />
            <mxPoint x="1240" y="570" as="targetPoint" />
          </mxGeometry>
        </mxCell>
        <mxCell id="q4BJDzquN5z42kv_lNJv-42" value="" style="endArrow=classic;html=1;rounded=0;entryX=0.5;entryY=0;entryDx=0;entryDy=0;entryPerimeter=0;exitX=0.5;exitY=1;exitDx=0;exitDy=0;exitPerimeter=0;" edge="1" parent="1" source="q4BJDzquN5z42kv_lNJv-8" target="q4BJDzquN5z42kv_lNJv-9">
          <mxGeometry width="50" height="50" relative="1" as="geometry">
            <mxPoint x="1290" y="240" as="sourcePoint" />
            <mxPoint x="1340" y="190" as="targetPoint" />
          </mxGeometry>
        </mxCell>
        <mxCell id="q4BJDzquN5z42kv_lNJv-43" value="" style="endArrow=classic;html=1;rounded=0;entryX=0.5;entryY=0;entryDx=0;entryDy=0;entryPerimeter=0;exitX=0.5;exitY=1;exitDx=0;exitDy=0;exitPerimeter=0;" edge="1" parent="1" source="q4BJDzquN5z42kv_lNJv-9" target="q4BJDzquN5z42kv_lNJv-11">
          <mxGeometry width="50" height="50" relative="1" as="geometry">
            <mxPoint x="1320" y="370" as="sourcePoint" />
            <mxPoint x="1319.52" y="472.25" as="targetPoint" />
          </mxGeometry>
        </mxCell>
        <mxCell id="q4BJDzquN5z42kv_lNJv-44" value="" style="endArrow=classic;html=1;rounded=0;entryX=0.5;entryY=0;entryDx=0;entryDy=0;entryPerimeter=0;" edge="1" parent="1" source="q4BJDzquN5z42kv_lNJv-11" target="q4BJDzquN5z42kv_lNJv-12">
          <mxGeometry width="50" height="50" relative="1" as="geometry">
            <mxPoint x="1319.52" y="560" as="sourcePoint" />
            <mxPoint x="1319.52" y="650" as="targetPoint" />
          </mxGeometry>
        </mxCell>
        <mxCell id="q4BJDzquN5z42kv_lNJv-45" value="" style="endArrow=classic;html=1;rounded=0;exitX=0.5;exitY=1;exitDx=0;exitDy=0;exitPerimeter=0;entryX=0.5;entryY=0;entryDx=0;entryDy=0;entryPerimeter=0;" edge="1" parent="1" source="q4BJDzquN5z42kv_lNJv-12" target="q4BJDzquN5z42kv_lNJv-13">
          <mxGeometry width="50" height="50" relative="1" as="geometry">
            <mxPoint x="1319.52" y="750" as="sourcePoint" />
            <mxPoint x="1320" y="840" as="targetPoint" />
          </mxGeometry>
        </mxCell>
        <mxCell id="q4BJDzquN5z42kv_lNJv-46" value="" style="endArrow=classic;html=1;rounded=0;exitX=0.5;exitY=1;exitDx=0;exitDy=0;exitPerimeter=0;entryX=0.5;entryY=0;entryDx=0;entryDy=0;entryPerimeter=0;" edge="1" parent="1" source="q4BJDzquN5z42kv_lNJv-13" target="q4BJDzquN5z42kv_lNJv-14">
          <mxGeometry width="50" height="50" relative="1" as="geometry">
            <mxPoint x="1319.52" y="940" as="sourcePoint" />
            <mxPoint x="1319.52" y="1030" as="targetPoint" />
          </mxGeometry>
        </mxCell>
        <mxCell id="q4BJDzquN5z42kv_lNJv-47" value="" style="endArrow=classic;html=1;rounded=0;exitX=1;exitY=1;exitDx=0;exitDy=0;exitPerimeter=0;entryX=0;entryY=0.5;entryDx=0;entryDy=0;entryPerimeter=0;" edge="1" parent="1" source="q4BJDzquN5z42kv_lNJv-9" target="q4BJDzquN5z42kv_lNJv-30">
          <mxGeometry width="50" height="50" relative="1" as="geometry">
            <mxPoint x="1370" y="370" as="sourcePoint" />
            <mxPoint x="1540" y="508.75" as="targetPoint" />
          </mxGeometry>
        </mxCell>
        <mxCell id="q4BJDzquN5z42kv_lNJv-48" value="" style="endArrow=classic;html=1;rounded=0;entryX=0.25;entryY=0;entryDx=0;entryDy=0;entryPerimeter=0;exitX=0.5;exitY=1;exitDx=0;exitDy=0;exitPerimeter=0;" edge="1" parent="1" source="q4BJDzquN5z42kv_lNJv-10" target="q4BJDzquN5z42kv_lNJv-30">
          <mxGeometry width="50" height="50" relative="1" as="geometry">
            <mxPoint x="1420" y="160" as="sourcePoint" />
            <mxPoint x="1580" y="458.75" as="targetPoint" />
          </mxGeometry>
        </mxCell>
        <mxCell id="q4BJDzquN5z42kv_lNJv-49" value="" style="endArrow=classic;html=1;rounded=0;exitX=0;exitY=0;exitDx=0;exitDy=0;exitPerimeter=0;entryX=1;entryY=1;entryDx=0;entryDy=0;entryPerimeter=0;" edge="1" parent="1" source="q4BJDzquN5z42kv_lNJv-30" target="q4BJDzquN5z42kv_lNJv-8">
          <mxGeometry width="50" height="50" relative="1" as="geometry">
            <mxPoint x="1560" y="468.75" as="sourcePoint" />
            <mxPoint x="1390" y="330" as="targetPoint" />
          </mxGeometry>
        </mxCell>
        <mxCell id="q4BJDzquN5z42kv_lNJv-50" value="" style="edgeStyle=orthogonalEdgeStyle;html=1;endArrow=openThin;elbow=vertical;startArrow=none;endFill=0;strokeColor=#545B64;rounded=0;entryX=0;entryY=0.5;entryDx=0;entryDy=0;entryPerimeter=0;exitX=1;exitY=0.5;exitDx=0;exitDy=0;exitPerimeter=0;" edge="1" parent="1" source="q4BJDzquN5z42kv_lNJv-8" target="q4BJDzquN5z42kv_lNJv-28">
          <mxGeometry width="100" relative="1" as="geometry">
            <mxPoint x="1390" y="119.52000000000001" as="sourcePoint" />
            <mxPoint x="1490" y="119.52000000000001" as="targetPoint" />
          </mxGeometry>
        </mxCell>
        <mxCell id="q4BJDzquN5z42kv_lNJv-51" value="" style="endArrow=classic;html=1;rounded=0;exitX=1;exitY=0.75;exitDx=0;exitDy=0;exitPerimeter=0;entryX=0;entryY=0;entryDx=0;entryDy=0;entryPerimeter=0;" edge="1" parent="1" source="q4BJDzquN5z42kv_lNJv-8" target="q4BJDzquN5z42kv_lNJv-29">
          <mxGeometry width="50" height="50" relative="1" as="geometry">
            <mxPoint x="1410" y="280" as="sourcePoint" />
            <mxPoint x="1558" y="280" as="targetPoint" />
          </mxGeometry>
        </mxCell>
        <mxCell id="q4BJDzquN5z42kv_lNJv-52" value="" style="endArrow=classic;html=1;rounded=0;exitX=1;exitY=0.5;exitDx=0;exitDy=0;exitPerimeter=0;entryX=0;entryY=0.75;entryDx=0;entryDy=0;entryPerimeter=0;" edge="1" parent="1" source="q4BJDzquN5z42kv_lNJv-27" target="q4BJDzquN5z42kv_lNJv-29">
          <mxGeometry width="50" height="50" relative="1" as="geometry">
            <mxPoint x="1090" y="540" as="sourcePoint" />
            <mxPoint x="1140" y="490" as="targetPoint" />
          </mxGeometry>
        </mxCell>
        <mxCell id="q4BJDzquN5z42kv_lNJv-53" value="" style="endArrow=classic;html=1;rounded=0;entryX=0;entryY=1;entryDx=0;entryDy=0;entryPerimeter=0;exitX=1;exitY=0.5;exitDx=0;exitDy=0;exitPerimeter=0;" edge="1" parent="1" source="q4BJDzquN5z42kv_lNJv-17" target="q4BJDzquN5z42kv_lNJv-8">
          <mxGeometry width="50" height="50" relative="1" as="geometry">
            <mxPoint x="1100" y="310" as="sourcePoint" />
            <mxPoint x="1150" y="260" as="targetPoint" />
          </mxGeometry>
        </mxCell>
        <mxCell id="q4BJDzquN5z42kv_lNJv-54" value="" style="endArrow=classic;html=1;rounded=0;entryX=1;entryY=0;entryDx=0;entryDy=0;entryPerimeter=0;exitX=0;exitY=0.5;exitDx=0;exitDy=0;exitPerimeter=0;" edge="1" parent="1" source="q4BJDzquN5z42kv_lNJv-7" target="q4BJDzquN5z42kv_lNJv-27">
          <mxGeometry width="50" height="50" relative="1" as="geometry">
            <mxPoint x="950" y="170" as="sourcePoint" />
            <mxPoint x="990" y="350" as="targetPoint" />
          </mxGeometry>
        </mxCell>
        <mxCell id="q4BJDzquN5z42kv_lNJv-55" value="" style="endArrow=classic;html=1;rounded=0;exitX=0.145;exitY=0.855;exitDx=0;exitDy=0;exitPerimeter=0;" edge="1" parent="1" source="q4BJDzquN5z42kv_lNJv-7" target="q4BJDzquN5z42kv_lNJv-25">
          <mxGeometry width="50" height="50" relative="1" as="geometry">
            <mxPoint x="940" y="320" as="sourcePoint" />
            <mxPoint x="900" y="610" as="targetPoint" />
          </mxGeometry>
        </mxCell>
        <mxCell id="q4BJDzquN5z42kv_lNJv-56" value="" style="endArrow=classic;html=1;rounded=0;exitX=0.5;exitY=1;exitDx=0;exitDy=0;exitPerimeter=0;" edge="1" parent="1" source="q4BJDzquN5z42kv_lNJv-5" target="q4BJDzquN5z42kv_lNJv-19">
          <mxGeometry width="50" height="50" relative="1" as="geometry">
            <mxPoint x="620" y="280" as="sourcePoint" />
            <mxPoint x="670" y="230" as="targetPoint" />
          </mxGeometry>
        </mxCell>
        <mxCell id="q4BJDzquN5z42kv_lNJv-57" value="" style="endArrow=classic;html=1;rounded=0;entryX=0;entryY=0;entryDx=0;entryDy=0;entryPerimeter=0;" edge="1" parent="1" source="q4BJDzquN5z42kv_lNJv-19" target="q4BJDzquN5z42kv_lNJv-27">
          <mxGeometry width="50" height="50" relative="1" as="geometry">
            <mxPoint x="620" y="400" as="sourcePoint" />
            <mxPoint x="670" y="350" as="targetPoint" />
          </mxGeometry>
        </mxCell>
        <mxCell id="q4BJDzquN5z42kv_lNJv-58" value="" style="endArrow=classic;html=1;rounded=0;entryX=0;entryY=0;entryDx=0;entryDy=0;entryPerimeter=0;exitX=1;exitY=1;exitDx=0;exitDy=0;exitPerimeter=0;" edge="1" parent="1" source="q4BJDzquN5z42kv_lNJv-27" target="q4BJDzquN5z42kv_lNJv-16">
          <mxGeometry width="50" height="50" relative="1" as="geometry">
            <mxPoint x="910" y="600" as="sourcePoint" />
            <mxPoint x="960" y="550" as="targetPoint" />
          </mxGeometry>
        </mxCell>
        <mxCell id="q4BJDzquN5z42kv_lNJv-59" value="" style="endArrow=classic;html=1;rounded=0;entryX=0;entryY=0;entryDx=0;entryDy=0;entryPerimeter=0;exitX=1;exitY=1;exitDx=0;exitDy=0;exitPerimeter=0;" edge="1" parent="1" source="q4BJDzquN5z42kv_lNJv-16" target="q4BJDzquN5z42kv_lNJv-13">
          <mxGeometry width="50" height="50" relative="1" as="geometry">
            <mxPoint x="1120" y="780" as="sourcePoint" />
            <mxPoint x="1170" y="730" as="targetPoint" />
          </mxGeometry>
        </mxCell>
        <mxCell id="q4BJDzquN5z42kv_lNJv-60" value="" style="endArrow=classic;html=1;rounded=0;entryX=0.5;entryY=0;entryDx=0;entryDy=0;entryPerimeter=0;" edge="1" parent="1" source="q4BJDzquN5z42kv_lNJv-16" target="q4BJDzquN5z42kv_lNJv-15">
          <mxGeometry width="50" height="50" relative="1" as="geometry">
            <mxPoint x="1080" y="810" as="sourcePoint" />
            <mxPoint x="1130" y="760" as="targetPoint" />
          </mxGeometry>
        </mxCell>
        <mxCell id="q4BJDzquN5z42kv_lNJv-61" value="" style="endArrow=classic;html=1;rounded=0;exitX=0.5;exitY=1;exitDx=0;exitDy=0;exitPerimeter=0;" edge="1" parent="1" source="q4BJDzquN5z42kv_lNJv-17" target="q4BJDzquN5z42kv_lNJv-16">
          <mxGeometry width="50" height="50" relative="1" as="geometry">
            <mxPoint x="1080" y="560" as="sourcePoint" />
            <mxPoint x="1130" y="510" as="targetPoint" />
          </mxGeometry>
        </mxCell>
        <mxCell id="q4BJDzquN5z42kv_lNJv-62" value="" style="endArrow=classic;html=1;rounded=0;exitX=0.5;exitY=1;exitDx=0;exitDy=0;exitPerimeter=0;" edge="1" parent="1" source="q4BJDzquN5z42kv_lNJv-6">
          <mxGeometry width="50" height="50" relative="1" as="geometry">
            <mxPoint x="810" y="310" as="sourcePoint" />
            <mxPoint x="800" y="280" as="targetPoint" />
          </mxGeometry>
        </mxCell>
        <mxCell id="q4BJDzquN5z42kv_lNJv-63" value="" style="endArrow=classic;html=1;rounded=0;exitX=1;exitY=0.5;exitDx=0;exitDy=0;exitPerimeter=0;entryX=0;entryY=1;entryDx=0;entryDy=0;entryPerimeter=0;" edge="1" parent="1" source="q4BJDzquN5z42kv_lNJv-20" target="q4BJDzquN5z42kv_lNJv-6">
          <mxGeometry width="50" height="50" relative="1" as="geometry">
            <mxPoint x="380" y="310" as="sourcePoint" />
            <mxPoint x="430" y="260" as="targetPoint" />
          </mxGeometry>
        </mxCell>
        <mxCell id="q4BJDzquN5z42kv_lNJv-64" value="" style="endArrow=classic;html=1;rounded=0;exitX=0.5;exitY=1;exitDx=0;exitDy=0;exitPerimeter=0;entryX=0.5;entryY=0;entryDx=0;entryDy=0;entryPerimeter=0;" edge="1" parent="1" source="q4BJDzquN5z42kv_lNJv-20" target="q4BJDzquN5z42kv_lNJv-21">
          <mxGeometry width="50" height="50" relative="1" as="geometry">
            <mxPoint x="330" y="540" as="sourcePoint" />
            <mxPoint x="380" y="490" as="targetPoint" />
          </mxGeometry>
        </mxCell>
        <mxCell id="q4BJDzquN5z42kv_lNJv-65" value="" style="endArrow=classic;html=1;rounded=0;exitX=0.5;exitY=1;exitDx=0;exitDy=0;exitPerimeter=0;entryX=0.5;entryY=0;entryDx=0;entryDy=0;entryPerimeter=0;" edge="1" parent="1" source="q4BJDzquN5z42kv_lNJv-21" target="q4BJDzquN5z42kv_lNJv-22">
          <mxGeometry width="50" height="50" relative="1" as="geometry">
            <mxPoint x="330" y="660" as="sourcePoint" />
            <mxPoint x="380" y="610" as="targetPoint" />
          </mxGeometry>
        </mxCell>
        <mxCell id="q4BJDzquN5z42kv_lNJv-66" value="" style="endArrow=classic;html=1;rounded=0;exitX=0;exitY=1;exitDx=0;exitDy=0;exitPerimeter=0;" edge="1" parent="1" source="q4BJDzquN5z42kv_lNJv-27" target="q4BJDzquN5z42kv_lNJv-23">
          <mxGeometry width="50" height="50" relative="1" as="geometry">
            <mxPoint x="550" y="720" as="sourcePoint" />
            <mxPoint x="550" y="600" as="targetPoint" />
          </mxGeometry>
        </mxCell>
        <mxCell id="q4BJDzquN5z42kv_lNJv-67" value="" style="endArrow=classic;html=1;rounded=0;exitX=0.5;exitY=1;exitDx=0;exitDy=0;exitPerimeter=0;entryX=0.5;entryY=0;entryDx=0;entryDy=0;entryPerimeter=0;" edge="1" parent="1" source="q4BJDzquN5z42kv_lNJv-23" target="q4BJDzquN5z42kv_lNJv-24">
          <mxGeometry width="50" height="50" relative="1" as="geometry">
            <mxPoint x="550" y="800" as="sourcePoint" />
            <mxPoint x="600" y="750" as="targetPoint" />
          </mxGeometry>
        </mxCell>
        <mxCell id="q4BJDzquN5z42kv_lNJv-68" value="" style="endArrow=classic;html=1;rounded=0;exitX=1;exitY=0.5;exitDx=0;exitDy=0;exitPerimeter=0;entryX=-0.042;entryY=0.457;entryDx=0;entryDy=0;entryPerimeter=0;" edge="1" parent="1" source="q4BJDzquN5z42kv_lNJv-24" target="q4BJDzquN5z42kv_lNJv-25">
          <mxGeometry width="50" height="50" relative="1" as="geometry">
            <mxPoint x="670" y="840" as="sourcePoint" />
            <mxPoint x="720" y="790" as="targetPoint" />
          </mxGeometry>
        </mxCell>
        <mxCell id="q4BJDzquN5z42kv_lNJv-69" value="" style="html=1;verticalLabelPosition=bottom;align=center;labelBackgroundColor=#ffffff;verticalAlign=top;strokeWidth=2;strokeColor=#0080F0;shadow=0;dashed=0;shape=mxgraph.ios7.icons.location;" vertex="1" parent="1">
          <mxGeometry x="-40" y="480" width="80" height="80" as="geometry" />
        </mxCell>
        <mxCell id="q4BJDzquN5z42kv_lNJv-70" value="" style="endArrow=classic;html=1;rounded=0;exitX=0.818;exitY=0.71;exitDx=0;exitDy=0;exitPerimeter=0;entryX=0;entryY=0;entryDx=0;entryDy=0;entryPerimeter=0;" edge="1" parent="1" source="q4BJDzquN5z42kv_lNJv-69" target="q4BJDzquN5z42kv_lNJv-22">
          <mxGeometry width="50" height="50" relative="1" as="geometry">
            <mxPoint x="380" y="470" as="sourcePoint" />
            <mxPoint x="430" y="420" as="targetPoint" />
          </mxGeometry>
        </mxCell>
        <mxCell id="q4BJDzquN5z42kv_lNJv-71" value="" style="endArrow=classic;html=1;rounded=0;entryX=0;entryY=0.21;entryDx=0;entryDy=0;entryPerimeter=0;exitX=0.841;exitY=0.597;exitDx=0;exitDy=0;exitPerimeter=0;" edge="1" parent="1" source="q4BJDzquN5z42kv_lNJv-69" target="q4BJDzquN5z42kv_lNJv-23">
          <mxGeometry width="50" height="50" relative="1" as="geometry">
            <mxPoint x="390" y="490" as="sourcePoint" />
            <mxPoint x="440" y="440" as="targetPoint" />
          </mxGeometry>
        </mxCell>
        <mxCell id="q4BJDzquN5z42kv_lNJv-72" value="AWS Architecture for &lt;font style=&quot;color: light-dark(rgb(227, 13, 13), rgb(237, 237, 237));&quot;&gt;CINEMARK&lt;/font&gt;" style="text;html=1;align=center;verticalAlign=middle;whiteSpace=wrap;rounded=0;fontSize=72;fontStyle=1;fontColor=default;" vertex="1" parent="1">
          <mxGeometry x="-10" y="-380" width="1270" height="190" as="geometry" />
        </mxCell>
      </root>
    </mxGraphModel>
  </diagram>
</mxfile>
